Coordinates
version=1
nRows=49
nColumns=12
inDegrees=yes

Units are S.I. units (second, meters, Newtons, ...)
Angles are in degrees

endheader
time	SC_y	SC_z	SC_x	AC_y	AC_z	AC_x	GH_y	GH_z	GH_yy	EL_x	PS_y
       0.0              -50.05          38.62          69.46          69.57          2.704         -1.086          97.59          47.74          138.0          15.89          28.19
  0.001864              -50.05          38.61          69.46          69.57          2.703         -1.085          97.56          47.73          138.0          15.91          28.21
  0.003729              -50.05          38.61          69.46          69.57          2.702         -1.084          97.52          47.72          137.9          15.93          28.23
  0.005593              -50.04           38.6          69.46          69.57          2.701         -1.083          97.47          47.71          137.9          15.95          28.25
  0.007458              -50.04          38.59          69.46          69.57            2.7         -1.082          97.43           47.7          137.8          15.97          28.27
  0.009322              -50.04          38.58          69.46          69.56          2.698         -1.081          97.38          47.69          137.8          15.99          28.29
   0.01119              -50.04          38.58          69.46          69.56          2.697          -1.08          97.33          47.67          137.7          16.01          28.32
   0.01305              -50.04          38.57          69.46          69.56          2.696         -1.079          97.28          47.66          137.6          16.04          28.35
   0.01492              -50.03          38.56          69.46          69.56          2.694         -1.078          97.22          47.65          137.6          16.06          28.38
   0.01678              -50.03          38.55          69.46          69.56          2.693         -1.076          97.16          47.63          137.5          16.09          28.41
   0.01864              -50.03          38.54          69.46          69.56          2.691         -1.075          97.09          47.62          137.4          16.12          28.44
   0.02051              -50.02          38.53          69.46          69.56          2.689         -1.073          97.02           47.6          137.3          16.15          28.48
   0.02237              -50.02          38.52          69.46          69.56          2.687         -1.072          96.94          47.58          137.2          16.19          28.52
   0.02424              -50.02           38.5          69.47          69.56          2.685          -1.07          96.85          47.56          137.1          16.23          28.56
    0.0261              -50.01          38.49          69.47          69.56          2.682         -1.068          96.76          47.54          137.0          16.27           28.6
   0.02797              -50.01          38.47          69.47          69.56           2.68         -1.066          96.66          47.52          136.9          16.31          28.65
   0.02983              -50.01          38.46          69.47          69.56          2.677         -1.064          96.56          47.49          136.8          16.36          28.71
   0.03169               -50.0          38.44          69.47          69.56          2.674         -1.061          96.44          47.47          136.6          16.41          28.77
   0.03356               -50.0          38.42          69.47          69.55          2.671         -1.059          96.31          47.44          136.5          16.47          28.83
   0.03542              -49.99           38.4          69.47          69.55          2.667         -1.056          96.17           47.4          136.3          16.53           28.9
   0.03729              -49.98          38.38          69.47          69.55          2.663         -1.053          96.02          47.37          136.1           16.6          28.98
   0.03915              -49.98          38.35          69.47          69.55          2.659         -1.049          95.85          47.33          135.9          16.68          29.06
   0.04102              -49.97          38.32          69.47          69.55          2.654         -1.045          95.66          47.28          135.7          16.76          29.16
   0.04288              -49.96          38.29          69.47          69.55          2.649         -1.041          95.45          47.23          135.4          16.86          29.26
   0.04475              -49.95          38.25          69.47          69.54          2.643         -1.036          95.22          47.18          135.1          16.96          29.37
   0.04661              -49.94          38.21          69.47          69.54          2.637         -1.031          94.96          47.12          134.8          17.08           29.5
   0.04847              -49.93          38.17          69.47          69.54          2.629         -1.024          94.68          47.05          134.5          17.21          29.65
   0.05034              -49.91          38.12          69.47          69.53          2.621         -1.018          94.35          46.98          134.1          17.35          29.81
    0.0522               -49.9          38.06          69.47          69.53          2.612          -1.01          93.99          46.89          133.6          17.52          29.99
   0.05407              -49.88           38.0          69.48          69.53          2.601         -1.001          93.57           46.8          133.1           17.7           30.2
   0.05593              -49.86          37.93          69.48          69.52          2.589        -0.9914           93.1          46.68          132.5          17.92          30.44
    0.0578              -49.84          37.84          69.48          69.52          2.575          -0.98          92.55          46.56          131.9          18.16          30.71
   0.05966              -49.81          37.75          69.48          69.51          2.559        -0.9668          91.92          46.41          131.1          18.45          31.02
   0.06152              -49.78          37.64          69.48           69.5           2.54        -0.9515          91.19          46.24          130.2          18.78          31.39
   0.06339              -49.74           37.5          69.49          69.49          2.519        -0.9336          90.34          46.04          129.2          19.16          31.82
   0.06525               -49.7          37.35          69.49          69.48          2.493        -0.9125          89.33           45.8          128.0          19.62          32.32
   0.06712              -49.65          37.17          69.49          69.47          2.462        -0.8874          88.13          45.52          126.5          20.15          32.92
   0.06898              -49.59          36.95           69.5          69.46          2.426        -0.8574           86.7          45.19          124.7           20.8          33.64
   0.07085              -49.52          36.68           69.5          69.44          2.381         -0.821          84.96          44.78          122.6          21.58           34.5
   0.07271              -49.43          36.35          69.51          69.42          2.327        -0.7766          82.84          44.29          120.0          22.54          35.56
   0.07458              -49.32          35.95          69.52          69.39          2.261        -0.7217          80.22          43.67          116.9          23.72          36.87
   0.07644              -49.18          35.45          69.53          69.36          2.177        -0.6534          76.96          42.91          112.9          25.19           38.5
    0.0783              -49.01          34.82          69.54          69.32          2.072        -0.5672          72.84          41.95          107.9          27.04          40.56
   0.08017              -48.79          34.02          69.56          69.27          1.939        -0.4577          67.62          40.73          101.5           29.4          43.17
   0.08203               -48.5          32.99          69.58           69.2          1.768        -0.3176          60.93          39.16          93.32          32.41          46.52
    0.0839              -48.14          31.67          69.61          69.11          1.549        -0.1377          52.34          37.16          82.85          36.28          50.81
   0.08576              -47.68          29.99          69.65           69.0           1.27        0.09201          41.37          34.59          69.47          41.22          56.29
   0.08763               -47.1          27.88           69.7          68.87         0.9178         0.3809          27.58          31.37          52.66          47.44          63.19
   0.08949              -46.39           25.3          69.75           68.7         0.4891         0.7329          10.77          27.44          32.16          55.01          71.59
